<?xml version="1.0" encoding="utf-8"?>
<!-- Generator: Adobe Illustrator 23.0.6, SVG Export Plug-In . SVG Version: 6.00 Build 0)  -->
<svg version="1.1" xmlns="http://www.w3.org/2000/svg" xmlns:xlink="http://www.w3.org/1999/xlink" x="0px" y="0px"
	 viewBox="0 0 798.61 600" style="enable-background:new 0 0 798.61 600;" xml:space="preserve">
<style type="text/css">
	.st0{fill:#66806C;}
	.st1{fill:#C2CCC4;}
	.st2{fill:#FFFFFF;}
	.st3{fill:#53505C;}
</style>
<g id="Ñëîé_2">
</g>
<g id="Ñëîé_3">
	<g>
		<g>
			<path class="st0" d="M432.59,463.22h95.49c2.61-0.93,5.18-1.92,7.72-3c0.95,1.02,1.93,2.02,2.92,3h160.33
				c20.68-20.58,33.48-49.07,33.48-80.55c0-62.77-50.88-113.65-113.65-113.65c-3.27,0-6.51,0.15-9.71,0.42
				c-22.61-48.5-71.79-82.11-128.82-82.11c-78.46,0-142.07,63.61-142.07,142.07C338.27,391.09,377.62,443.61,432.59,463.22z"/>
		</g>
	</g>
	<g>
		<g>
			<path class="st1" d="M430.46,571.23h95.49c2.61-0.93,5.18-1.92,7.72-3c0.95,1.02,1.93,2.02,2.92,3h160.33
				c20.68-20.58,33.48-49.07,33.48-80.55c0-62.77-50.88-113.65-113.65-113.65c-3.27,0-6.51,0.15-9.71,0.42
				c-22.61-48.5-71.79-82.11-128.82-82.11c-78.46,0-142.07,63.61-142.07,142.07C336.14,499.1,375.49,551.62,430.46,571.23z"/>
		</g>
	</g>
	<g>
		<g>
			<path class="st2" d="M403.76,571.23h66.84c1.82-0.65,3.63-1.35,5.4-2.1c0.67,0.71,1.35,1.41,2.04,2.1h112.23
				c14.48-14.41,23.44-34.35,23.44-56.39c0-43.94-35.62-79.56-79.56-79.56c-2.29,0-4.55,0.1-6.8,0.29
				c-15.83-33.95-50.25-57.48-90.18-57.48c-54.92,0-99.45,44.52-99.45,99.45C337.73,520.74,365.28,557.5,403.76,571.23z"/>
		</g>
	</g>
</g>
<g id="Ñëîé_1">
	<path class="st0" d="M412.86,571.23H107.13c-14.88,0-26.94-12.06-26.94-26.94V65.42c0-14.88,12.06-26.94,26.94-26.94h305.73
		c14.88,0,26.94,12.06,26.94,26.94v478.87C439.8,559.17,427.73,571.23,412.86,571.23z"/>
	<rect x="100.17" y="91.75" class="st3" width="319.65" height="426.2"/>
	<g>
		<rect x="100.17" y="91.75" class="st2" width="319.65" height="106.55"/>
		<rect x="196.06" y="123.72" class="st0" width="213.1" height="42.62"/>
		<circle class="st0" cx="132.13" cy="145.03" r="21.31"/>
	</g>
	<g>
		<rect x="100.17" y="251.58" class="st2" width="319.65" height="106.55"/>
		<rect x="196.06" y="283.54" class="st0" width="213.1" height="42.62"/>
		<circle class="st0" cx="132.13" cy="304.85" r="21.31"/>
	</g>
	<g>
		<rect x="100.17" y="411.4" class="st2" width="319.65" height="106.55"/>
		<rect x="196.06" y="443.37" class="st0" width="213.1" height="42.62"/>
		<circle class="st0" cx="132.13" cy="464.68" r="21.31"/>
	</g>
</g>
</svg>
